<svg width="55" height="54" viewBox="0 0 55 54" fill="none" xmlns="http://www.w3.org/2000/svg">
<g filter="url(#filter0_d_29_65)">
<g filter="url(#filter1_d_29_65)">
<circle cx="27.5" cy="23" r="23" fill="#7B2CBF"/>
</g>
<g clip-path="url(#clip0_29_65)">
<path d="M32.8617 22.6412L24.3704 14.1499C24.1705 13.95 23.8499 13.95 23.6499 14.1499C23.45 14.3499 23.45 14.6705 23.6499 14.8704L31.779 22.9995L23.6499 31.1286C23.45 31.3285 23.45 31.6492 23.6499 31.8491C23.748 31.9472 23.88 32 24.0083 32C24.1366 32 24.2686 31.951 24.3667 31.8491L32.8579 23.3579C33.0578 23.1617 33.0578 22.8373 32.8617 22.6412Z" fill="white" stroke="white"/>
</g>
</g>
<defs>
<filter id="filter0_d_29_65" x="0.5" y="0" width="54" height="54" filterUnits="userSpaceOnUse" color-interpolation-filters="sRGB">
<feFlood flood-opacity="0" result="BackgroundImageFix"/>
<feColorMatrix in="SourceAlpha" type="matrix" values="0 0 0 0 0 0 0 0 0 0 0 0 0 0 0 0 0 0 127 0" result="hardAlpha"/>
<feOffset dy="4"/>
<feGaussianBlur stdDeviation="2"/>
<feComposite in2="hardAlpha" operator="out"/>
<feColorMatrix type="matrix" values="0 0 0 0 0 0 0 0 0 0 0 0 0 0 0 0 0 0 0.25 0"/>
<feBlend mode="normal" in2="BackgroundImageFix" result="effect1_dropShadow_29_65"/>
<feBlend mode="normal" in="SourceGraphic" in2="effect1_dropShadow_29_65" result="shape"/>
</filter>
<filter id="filter1_d_29_65" x="0.5" y="0" width="54" height="54" filterUnits="userSpaceOnUse" color-interpolation-filters="sRGB">
<feFlood flood-opacity="0" result="BackgroundImageFix"/>
<feColorMatrix in="SourceAlpha" type="matrix" values="0 0 0 0 0 0 0 0 0 0 0 0 0 0 0 0 0 0 127 0" result="hardAlpha"/>
<feOffset dy="4"/>
<feGaussianBlur stdDeviation="2"/>
<feComposite in2="hardAlpha" operator="out"/>
<feColorMatrix type="matrix" values="0 0 0 0 0 0 0 0 0 0 0 0 0 0 0 0 0 0 0.25 0"/>
<feBlend mode="normal" in2="BackgroundImageFix" result="effect1_dropShadow_29_65"/>
<feBlend mode="normal" in="SourceGraphic" in2="effect1_dropShadow_29_65" result="shape"/>
</filter>
<clipPath id="clip0_29_65">
<rect width="18" height="18" fill="white" transform="translate(18.5 14)"/>
</clipPath>
</defs>
</svg>
